<svg width="34" height="24" viewBox="0 0 34 24" fill="none" xmlns="http://www.w3.org/2000/svg">
<rect x="0.5" y="0.5" width="33" height="23" rx="3.5" fill="white" stroke="#D9D9D9"/>
<path fill-rule="evenodd" clip-rule="evenodd" d="M17 17.4472C15.8349 18.4155 14.3236 19 12.6721 19C8.98721 19 6 16.0899 6 12.5C6 8.91015 8.98721 6 12.6721 6C14.3236 6 15.8349 6.58452 17 7.55277C18.1651 6.58452 19.6764 6 21.3279 6C25.0128 6 28 8.91015 28 12.5C28 16.0899 25.0128 19 21.3279 19C19.6764 19 18.1651 18.4155 17 17.4472Z" fill="#ED0006"/>
<path fill-rule="evenodd" clip-rule="evenodd" d="M17 17.4472C18.4346 16.255 19.3442 14.481 19.3442 12.5C19.3442 10.519 18.4346 8.74499 17 7.55277C18.1651 6.58452 19.6764 6 21.3279 6C25.0128 6 28 8.91015 28 12.5C28 16.0899 25.0128 19 21.3279 19C19.6764 19 18.1651 18.4155 17 17.4472Z" fill="#F9A000"/>
<path fill-rule="evenodd" clip-rule="evenodd" d="M17.0005 17.4472C18.4351 16.255 19.3447 14.481 19.3447 12.5C19.3447 10.519 18.4351 8.74495 17.0005 7.55273C15.5659 8.74495 14.6562 10.519 14.6562 12.5C14.6562 14.481 15.5659 16.255 17.0005 17.4472Z" fill="#FF5E00"/>
</svg>
