<svg width="28" height="28" viewBox="0 0 28 28" fill="none" xmlns="http://www.w3.org/2000/svg">
<path d="M4.12 4.12C2.39687 4.12 1 5.51687 1 7.24V23.88C1 25.6031 2.39687 27 4.12 27H20.76C22.4831 27 23.88 25.6031 23.88 23.88M4.12 4.12V20.76M4.12 4.12C4.12 2.39687 5.51687 1 7.24 1H23.88C25.6031 1 27 2.39687 27 4.12V20.76C27 22.4831 25.6031 23.88 23.88 23.88M23.88 23.88H7.24C5.51687 23.88 4.12 22.4831 4.12 20.76M23.88 23.88C25.3475 23.88 26.5784 22.8668 26.9113 21.5017C26.9506 21.3405 26.8935 21.1735 26.7762 21.0562L23.7277 18.0077C23.5246 17.8046 23.1954 17.8046 22.9923 18.0077L21.031 19.969C20.8217 20.1784 20.48 20.1709 20.28 19.9527L12.8233 11.8182C12.6172 11.5933 12.2628 11.5933 12.0567 11.8182L4.25668 20.3273C4.16877 20.4232 4.12 20.5486 4.12 20.6787V20.76M17.018 7.24C17.018 6.27467 17.533 5.38267 18.369 4.9C19.205 4.41733 20.235 4.41733 21.071 4.9C21.907 5.38267 22.422 6.27467 22.422 7.24C22.422 8.20533 21.907 9.09733 21.071 9.58C20.235 10.0627 19.205 10.0627 18.369 9.58C17.533 9.09733 17.018 8.20533 17.018 7.24Z" stroke="#F85A47" stroke-linecap="round" stroke-linejoin="round"/>
</svg>
