<svg width="34" height="24" viewBox="0 0 34 24" fill="none" xmlns="http://www.w3.org/2000/svg">
<rect width="34" height="24" rx="2" fill="white"/>
<path fill-rule="evenodd" clip-rule="evenodd" d="M16.069 14.822V11.8874H17.5659C18.1792 11.8874 18.6969 11.6794 19.1189 11.2692L19.2202 11.1653C19.9911 10.3161 19.9405 8.99315 19.1189 8.20749C18.7082 7.79156 18.1454 7.56626 17.5659 7.57782H15.1631V14.822H16.069ZM16.0691 10.9976V8.46728H17.5887C17.9151 8.46728 18.2246 8.59437 18.4554 8.82545C18.945 9.3107 18.9563 10.1195 18.4835 10.6221C18.2528 10.8705 17.9263 11.0091 17.5887 10.9976H16.0691ZM23.4462 10.2524C23.058 9.88847 22.529 9.70361 21.8594 9.70361C20.9984 9.70361 20.3513 10.0271 19.9237 10.6684L20.7227 11.1825C21.0153 10.7435 21.4148 10.5239 21.9213 10.5239C22.242 10.5239 22.5515 10.6452 22.7935 10.8648C23.0298 11.0727 23.1649 11.3731 23.1649 11.6909V11.9046C22.816 11.7082 22.3771 11.6042 21.8369 11.6042C21.2066 11.6042 20.7002 11.7544 20.3232 12.0606C19.9462 12.3668 19.7549 12.7711 19.7549 13.2853C19.7436 13.7532 19.9405 14.198 20.2894 14.4984C20.6439 14.8219 21.0941 14.9837 21.623 14.9837C22.2477 14.9837 22.7428 14.7006 23.1199 14.1345H23.1592V14.8219H24.0258V11.766C24.0258 11.1247 23.8345 10.6164 23.4462 10.2524ZM20.9874 13.9092C20.8016 13.7705 20.6891 13.5452 20.6891 13.3026C20.6891 13.0311 20.8129 12.8058 21.0549 12.6267C21.3025 12.4476 21.6121 12.3552 21.9779 12.3552C22.4844 12.3494 22.8784 12.4649 23.1598 12.696C23.1598 13.0888 23.0078 13.4297 22.7095 13.7185C22.4394 13.9958 22.0736 14.1518 21.6909 14.1518C21.4376 14.1576 21.19 14.0709 20.9874 13.9092ZM25.9728 16.9999L29.0002 9.86548H28.0154L26.6143 13.424H26.5974L25.1625 9.86548H24.1777L26.1641 14.5043L25.0387 16.9999H25.9728Z" fill="#979899"/>
<path d="M12.9411 11.2521C12.9411 10.969 12.9186 10.686 12.8735 10.4087H9.05273V12.0089H11.2417C11.1516 12.523 10.859 12.9852 10.4314 13.274V14.3139H11.7369C12.5021 13.5917 12.9411 12.523 12.9411 11.2521Z" fill="#979899"/>
<path d="M9.05279 15.3189C10.1445 15.3189 11.0673 14.9492 11.7369 14.3138L10.4314 13.2739C10.0657 13.5281 9.59862 13.6725 9.05279 13.6725C7.9949 13.6725 7.10019 12.9389 6.77945 11.9568H5.43457V13.0313C6.12108 14.4351 7.52222 15.3189 9.05279 15.3189Z" fill="#979899"/>
<path d="M6.77985 11.9568C6.61101 11.4427 6.61101 10.8823 6.77985 10.3624V9.2937H5.43476C4.85508 10.4664 4.85508 11.8529 5.43476 13.0256L6.77985 11.9568Z" fill="#979899"/>
<path d="M9.05279 8.64666C9.63239 8.63511 10.1895 8.8604 10.6059 9.27056L11.7651 8.08053C11.0279 7.37575 10.06 6.9887 9.05279 7.00025C7.52222 7.00025 6.12108 7.88989 5.43457 9.29367L6.77945 10.3682C7.10019 9.38032 7.9949 8.64666 9.05279 8.64666Z" fill="#979899"/>
</svg>
