<svg width="11" height="14" viewBox="0 0 11 14" fill="none" xmlns="http://www.w3.org/2000/svg">
<path d="M3.34143 4.68013L3.34005 4.68129L3.33874 4.6826L3.34143 4.68013ZM9.42448 4.56207C9.38196 4.51963 9.33479 4.4825 9.28392 4.45143C9.21192 4.40755 9.132 4.37943 9.04909 4.3688C8.96618 4.35818 8.88205 4.36528 8.8019 4.38967C8.72174 4.41406 8.64727 4.45521 8.58309 4.51059C8.5189 4.56598 8.46637 4.6344 8.42873 4.71165C8.21822 5.14119 7.92789 5.52346 7.5744 5.83653C7.62845 5.52109 7.65571 5.20136 7.65586 4.88099C7.657 3.90638 7.40874 2.94887 6.93637 2.10594C6.46401 1.26301 5.7844 0.564774 4.96674 0.0823194C4.87667 0.0294386 4.7751 0.00112414 4.67156 3.279e-05C4.56803 -0.00105856 4.46593 0.025109 4.37483 0.0760801C4.28374 0.127051 4.20664 0.201155 4.15078 0.291437C4.09491 0.38172 4.06211 0.485222 4.05545 0.592231C4.02125 1.19233 3.86977 1.779 3.61019 2.31668C3.3506 2.85436 2.98832 3.33187 2.54529 3.72027L2.40445 3.83894C1.94117 4.16177 1.53111 4.55975 1.18999 5.01759C0.659739 5.70942 0.29242 6.51969 0.11716 7.38413C-0.0580987 8.24857 -0.0364767 9.14342 0.180312 9.9977C0.3971 10.852 0.803092 11.6422 1.36609 12.3057C1.92909 12.9692 2.63361 13.4877 3.42378 13.8201C3.51656 13.8594 3.61724 13.8744 3.71695 13.8639C3.81665 13.8533 3.91231 13.8175 3.9955 13.7596C4.07868 13.7017 4.14682 13.6235 4.19392 13.5319C4.24102 13.4402 4.26563 13.338 4.26556 13.2342C4.26513 13.1671 4.25487 13.1004 4.23513 13.0364C4.09841 12.5042 4.05904 11.9501 4.11905 11.4029C4.69731 12.5324 5.62552 13.4278 6.75446 13.945C6.89226 14.0088 7.04804 14.0174 7.19161 13.9691C8.08356 13.6709 8.88709 13.1415 9.52584 12.4312C10.1646 11.7208 10.6173 10.8531 10.8411 9.91048C11.0648 8.96786 11.0521 7.98164 10.8042 7.04553C10.5562 6.10943 10.0813 5.25453 9.42448 4.56207ZM7.03822 12.6829C6.50553 12.4033 6.03562 12.0107 5.65904 11.5307C5.28247 11.0506 5.00766 10.4939 4.85249 9.89664C4.8051 9.69553 4.76844 9.49188 4.74268 9.2866C4.72523 9.15587 4.66876 9.03407 4.58118 8.93821C4.4936 8.84235 4.37928 8.77723 4.25422 8.75197C4.21569 8.7441 4.1765 8.74017 4.13723 8.74023C4.02982 8.74019 3.9243 8.76948 3.83132 8.82515C3.73833 8.88082 3.66115 8.9609 3.60758 9.05731C3.10053 9.96307 2.84553 10.9965 2.87085 12.0432C2.42488 11.6841 2.05217 11.2369 1.77432 10.7275C1.49646 10.2181 1.31899 9.65671 1.25218 9.07577C1.18538 8.49483 1.23057 7.90594 1.38513 7.34322C1.5397 6.7805 1.80056 6.25515 2.15262 5.79761C2.41992 5.43802 2.74239 5.12629 3.10717 4.87484C3.12296 4.86428 3.13811 4.85272 3.15253 4.84023C3.15253 4.84023 3.33384 4.68486 3.34003 4.6813C4.21068 3.91863 4.82992 2.89368 5.11148 1.74926C5.77733 2.38674 6.22131 3.23407 6.37449 4.15968C6.52768 5.08528 6.38148 6.03738 5.95862 6.86811C5.90275 6.97896 5.87983 7.10447 5.89276 7.2288C5.90568 7.35312 5.95386 7.4707 6.03123 7.5667C6.1086 7.6627 6.21169 7.73282 6.32749 7.76821C6.44329 7.8036 6.56662 7.80268 6.68192 7.76557C7.61801 7.46167 8.44174 6.86806 9.04222 6.06464C9.40311 6.61672 9.63905 7.24602 9.73246 7.90567C9.82588 8.56531 9.77435 9.23828 9.58172 9.87443C9.3891 10.5106 9.06034 11.0935 8.61994 11.5798C8.17955 12.0661 7.63887 12.4431 7.0382 12.6829L7.03822 12.6829Z" fill="white"/>
</svg>
