<svg width="13" height="12" viewBox="0 0 13 12" fill="none" xmlns="http://www.w3.org/2000/svg">
<path d="M12 1.55448V4.88781M12 4.88781H8.69934M12 4.88781L9.45299 2.46559C8.69417 1.69878 7.70913 1.2018 6.6463 1.04956C5.58347 0.897312 4.50043 1.09804 3.5604 1.6215C2.62036 2.14496 1.87425 2.96278 1.4345 3.95174C0.994747 4.94069 0.885181 6.04719 1.12231 7.1045C1.35944 8.16181 1.93042 9.11265 2.7492 9.81373C3.56799 10.5148 4.59022 10.9282 5.66185 10.9915C6.73349 11.0548 7.79647 10.7646 8.69062 10.1648C9.58477 9.56487 10.2616 8.68776 10.6192 7.66558" stroke="#F85A47" stroke-linecap="round" stroke-linejoin="round"/>
</svg>
