<svg width="12" height="14" viewBox="0 0 12 14" fill="none" xmlns="http://www.w3.org/2000/svg">
<path d="M1 3.4H2.11111M2.11111 3.4H11M2.11111 3.4V11.8C2.11111 12.1183 2.22817 12.4235 2.43655 12.6485C2.64492 12.8736 2.92754 13 3.22222 13H8.77778C9.07246 13 9.35508 12.8736 9.56345 12.6485C9.77183 12.4235 9.88889 12.1183 9.88889 11.8V3.4H2.11111ZM3.77778 3.4V2.2C3.77778 1.88174 3.89484 1.57652 4.10322 1.35147C4.31159 1.12643 4.5942 1 4.88889 1H7.11111C7.4058 1 7.68841 1.12643 7.89679 1.35147C8.10516 1.57652 8.22222 1.88174 8.22222 2.2V3.4M7.11111 6.4V10M4.88889 6.4V10" stroke="#F85A47" stroke-linecap="round" stroke-linejoin="round"/>
</svg>
